<svg width="30" height="31" viewBox="0 0 50 51" fill="none" xmlns="http://www.w3.org/2000/svg">
<path d="M0.000595093 25.8036C0.0949516 30.7534 1.65689 35.5637 4.48843 39.6248C7.31998 43.6859 11.2936 46.815 15.9057 48.6154C20.5177 50.4158 25.5605 50.8064 30.3949 49.7378C35.2292 48.6691 39.6374 46.1894 43.0607 42.6127C46.4839 39.0361 48.7682 34.5238 49.6238 29.6476C50.4794 24.7714 49.8679 19.751 47.8668 15.2227C45.8657 10.6944 42.5651 6.86219 38.3834 4.21175C34.2016 1.5613 29.327 0.211984 24.3775 0.334852C17.8004 0.578441 11.5767 3.37382 7.02605 8.12834C2.47536 12.8828 -0.0445404 19.2227 0.000595093 25.8036Z" fill="white"/>
<path d="M15.4252 10.0732H34.5748C36.4696 10.0732 38.2868 10.7513 39.6267 11.9581C40.9665 13.165 41.7192 14.8019 41.7192 16.5086V34.1456C41.7192 34.9907 41.5344 35.8275 41.1754 36.6083C40.8164 37.3891 40.2901 38.0985 39.6267 38.6961C38.9632 39.2937 38.1756 39.7677 37.3088 40.0911C36.442 40.4146 35.513 40.581 34.5748 40.581H15.4252C14.487 40.581 13.558 40.4146 12.6912 40.0911C11.8243 39.7677 11.0368 39.2937 10.3733 38.6961C9.7099 38.0985 9.18364 37.3891 8.8246 36.6083C8.46555 35.8275 8.28075 34.9907 8.28075 34.1456V16.5404C8.27704 15.6929 8.45904 14.853 8.81633 14.0689C9.17363 13.2849 9.69919 12.572 10.3629 11.9712C11.0266 11.3704 11.8154 10.8935 12.6841 10.5678C13.5528 10.2422 14.4843 10.0741 15.4252 10.0732ZM25.0018 34.6289C26.8974 34.6674 28.7629 34.1963 30.36 33.2757C31.9571 32.3551 33.2135 31.0267 33.9687 29.4601C34.724 27.8935 34.944 26.1597 34.6005 24.48C34.257 22.8003 33.3657 21.2508 32.0403 20.0294C30.7149 18.808 29.0156 17.97 27.1591 17.6224C25.3027 17.2747 23.3733 17.4332 21.6173 18.0776C19.8613 18.722 18.3582 19.8231 17.3 21.2403C16.2418 22.6575 15.6763 24.3266 15.6758 26.0346C15.6614 27.1505 15.8912 28.2581 16.3521 29.2941C16.813 30.33 17.496 31.274 18.362 32.0721C19.2281 32.8702 20.2602 33.5068 21.3995 33.9455C22.5388 34.3842 23.7628 34.6164 25.0018 34.6289ZM14.6381 17.4434C14.871 17.4435 15.1016 17.4017 15.3163 17.3204C15.5311 17.2392 15.7257 17.1202 15.8887 16.9703C16.0518 16.8205 16.18 16.6429 16.2659 16.4479C16.3518 16.2528 16.3936 16.0443 16.3889 15.8346C16.3889 15.4079 16.2007 14.9987 15.8657 14.697C15.5308 14.3952 15.0765 14.2257 14.6028 14.2257C14.1291 14.2257 13.6747 14.3952 13.3398 14.697C13.0048 14.9987 12.8166 15.4079 12.8166 15.8346C12.8096 16.0617 12.8572 16.2875 12.9561 16.4966C13.0549 16.7056 13.2028 16.8929 13.3895 17.0457C13.5762 17.1985 13.7974 17.3132 14.0379 17.3818C14.2784 17.4504 14.5325 17.4715 14.7828 17.4434H14.6381Z" fill="#256A00"/>
</svg>
