<svg width="18" height="19" viewBox="0 0 27 28" fill="none" xmlns="http://www.w3.org/2000/svg">
<path d="M10.1139 11.1358C10.7225 11.1358 11.3251 11.0101 11.8874 10.7658C12.4497 10.5215 12.9605 10.1634 13.3909 9.71201C13.8212 9.26061 14.1626 8.72473 14.3955 8.13495C14.6284 7.54517 14.7483 6.91305 14.7483 6.27468C14.7483 5.63631 14.6284 5.0042 14.3955 4.41442C14.1626 3.82464 13.8212 3.28876 13.3909 2.83736C12.9605 2.38596 12.4497 2.0279 11.8874 1.7836C11.3251 1.53931 10.7225 1.41357 10.1139 1.41357C8.8848 1.41357 7.70603 1.92573 6.83692 2.83736C5.96781 3.749 5.47955 4.98544 5.47955 6.27468C5.47955 7.56393 5.96781 8.80037 6.83692 9.71201C7.70603 10.6236 8.8848 11.1358 10.1139 11.1358Z" stroke="#F5F5F5" stroke-width="2.5" stroke-linejoin="round"/>
<path d="M21.3688 17.3857V25.7191M17.3965 21.5524H25.3411" stroke="#F5F5F5" stroke-width="0.625"/>
<path d="M21.3688 17.3859V25.7192M17.3965 21.5525H25.3411M15.4103 16.6914H9.98151C7.01552 16.6914 5.53253 16.6914 4.3991 17.297C3.40256 17.8296 2.59235 18.6794 2.08457 19.7247C1.50726 20.9136 1.50726 22.4692 1.50726 25.5803V26.4136H15.4103" stroke="#F5F5F5" stroke-width="2.5" stroke-linecap="round" stroke-linejoin="round"/>
</svg>
