<svg width="30" height="31" viewBox="0 0 50 51" fill="none" xmlns="http://www.w3.org/2000/svg">
<circle cx="25" cy="25.3271" r="25" fill="white"/>
<path d="M41.6667 15.1504C40.44 15.6837 39.1234 16.0504 37.74 16.2104C39.1534 15.377 40.2334 14.057 40.7467 12.487C39.3999 13.2719 37.9304 13.8241 36.4 14.1204C35.7563 13.4456 34.9818 12.909 34.1239 12.5434C33.266 12.1778 32.3426 11.9907 31.41 11.9937C27.6334 11.9937 24.5734 15.0104 24.5734 18.727C24.5734 19.2537 24.6334 19.767 24.75 20.2604C22.0411 20.1317 19.3888 19.4398 16.9622 18.2288C14.5356 17.0179 12.3881 15.3143 10.6567 13.227C10.0486 14.2507 9.72841 15.4197 9.73004 16.6104C9.73004 18.9437 10.94 21.0104 12.7734 22.2137C11.6882 22.1797 10.6262 21.8908 9.67337 21.3704V21.4537C9.68367 23.0186 10.236 24.5315 11.2364 25.7349C12.2368 26.9382 13.6234 27.7577 15.16 28.0537C14.1512 28.3204 13.0957 28.3591 12.07 28.167C12.5171 29.5132 13.3723 30.6869 14.5168 31.5249C15.6613 32.363 17.0383 32.8239 18.4567 32.8437C16.0232 34.7189 13.0355 35.732 9.96337 35.7237C9.41337 35.7237 8.87004 35.6904 8.33337 35.6304C11.4683 37.6146 15.1032 38.6656 18.8134 38.6604C31.3934 38.6604 38.27 28.4003 38.27 19.5004L38.2467 18.627C39.5877 17.6846 40.7465 16.5066 41.6667 15.1504Z" fill="#226400"/>
</svg>
