<svg width="30" height="31" viewBox="0 0 50 51" fill="none" xmlns="http://www.w3.org/2000/svg">
<path d="M25 0.327148C11.1927 0.327148 0 11.5199 0 25.3271C0 39.1344 11.1927 50.3271 25 50.3271C38.8073 50.3271 50 39.1344 50 25.3271C50 11.5199 38.8073 0.327148 25 0.327148ZM18.8802 35.6891H13.8177V19.3975H18.8802V35.6891ZM16.3177 17.3975C14.7187 17.3975 13.6849 16.2646 13.6849 14.8636C13.6849 13.4339 14.75 12.335 16.3828 12.335C18.0156 12.335 19.0156 13.4339 19.0469 14.8636C19.0469 16.2646 18.0156 17.3975 16.3177 17.3975ZM37.3698 35.6891H32.3073V26.6605C32.3073 24.5589 31.5729 23.1318 29.7422 23.1318C28.3438 23.1318 27.513 24.098 27.1458 25.0277C27.0104 25.3584 26.9766 25.8271 26.9766 26.2933V35.6865H21.9115V24.5928C21.9115 22.5589 21.8464 20.8584 21.7786 19.3949H26.1771L26.4089 21.6579H26.5104C27.1771 20.5954 28.8099 19.0277 31.5417 19.0277C34.8724 19.0277 37.3698 21.2594 37.3698 26.0563V35.6891Z" fill="white"/>
</svg>
